<svg xmlns="http://www.w3.org/2000/svg" viewBox="0 0 232.99 349.84"><defs><style>.cls-1{opacity:0.9;}.cls-2{fill:#fff;}</style></defs><title>Asset 5</title><g id="Layer_2" data-name="Layer 2"><g id="Layer_1-2" data-name="Layer 1"><g class="cls-1"><line class="cls-2" x1="78.78" y1="165.06" x2="78.78" y2="155.66"/><line class="cls-2" x1="74.04" y1="160.36" x2="83.52" y2="160.36"/><line class="cls-2" x1="144.89" y1="164.39" x2="144.89" y2="155.25"/><line class="cls-2" x1="140.15" y1="159.82" x2="149.72" y2="159.82"/><path class="cls-2" d="M144.89,152.73a7.09,7.09,0,0,1,0,14.18C125,170.68,99.13,172,78.78,173.06a12.7,12.7,0,0,1,0-25.39c33.58,1.93,66.55,5.06,66.55,5.06"/></g><g class="cls-1"><line class="cls-2" x1="144.87" y1="164.4" x2="144.87" y2="155.25"/><line class="cls-2" x1="140.13" y1="159.82" x2="149.7" y2="159.82"/><path class="cls-2" d="M144.87,152.74a7.09,7.09,0,0,0,0,14.17s16.84,5.64,25.82,7c0,0,6.12,2,7.74-2.62,0,0,2.37-3.43-.94-5.49a70.57,70.57,0,0,0-9.23-4.36l22.21-1.19s4.8.06,4.36-4.37-3.55-3.93-3.55-3.93Z"/></g><g class="cls-1"><line class="cls-2" x1="35.36" y1="97.26" x2="43.37" y2="92.49"/><line class="cls-2" x1="36.72" y1="90.45" x2="41.84" y2="99.02"/><line class="cls-2" x1="74.73" y1="162.77" x2="82.8" y2="157.96"/><line class="cls-2" x1="76.34" y1="156.29" x2="81.19" y2="164.44"/><path class="cls-2" d="M46.76,82.81c3.5,1.64,12.06,15.63,12.06,15.63,5.79,7.67,18.38,31.5,30.84,55.42a12.69,12.69,0,0,1-21.8,13c-9.66-14.44-17.37-25.74-19.57-29.44,0,0-21.61-34.74-22.33-38.32l1.19,2.56a14,14,0,0,1,24-14.31"/></g><g class="cls-1"><line class="cls-2" x1="41.68" y1="84.18" x2="37.32" y2="75.96"/><line class="cls-2" x1="35.31" y1="82.29" x2="43.77" y2="77.81"/><path class="cls-2" d="M22,83c.23,1.8,1.74,4.4,2.18,5.23,3.42,6.44,15,7,21.4,3.6A13.2,13.2,0,0,0,51,74L49.39,70.5S47.45,67,51.51,65.43a34.25,34.25,0,0,1,5.09-1.76s4-.62,3.07-4-2-7.63-2-7.63a3,3,0,0,1,1.76-3.48c2.46-1.23,4-2.1,4-2.1s3.07-1.27,1.32-4.58-7.48-13-7.48-13S59.17-6.35,21.56,1c0,0-29.63,7.23-19.42,35.29C2.14,36.3,18.09,52.61,22,83Z"/></g><g class="cls-1"><line class="cls-2" x1="39.37" y1="84.62" x2="39.37" y2="75.3"/><line class="cls-2" x1="34.63" y1="79.96" x2="44.19" y2="79.96"/><line class="cls-2" x1="39.37" y1="99.5" x2="39.37" y2="90.19"/><line class="cls-2" x1="34.21" y1="94.84" x2="44.19" y2="94.84"/><line class="cls-2" x1="38.78" y1="216.76" x2="38.78" y2="207.45"/><line class="cls-2" x1="34.29" y1="212.11" x2="43.61" y2="212.11"/><path class="cls-2" d="M52.4,80c0-7.29-5.92-12.76-13.2-13.2-6.78-.41-14.7,2.82-16.7,7.56A108.09,108.09,0,0,1,13.25,93a5.25,5.25,0,0,0-.81,3.12c-.06,2.25-1.22,26.33,0,33.48s7.71,38.92,6.38,47.07-6.28,31.38-6.28,31.38a25.74,25.74,0,0,0-.31,4.05,26.06,26.06,0,0,0,51.59,5.25s10.53-24.7,11.31-28.29c0,0,12-50.65,0-73.1C75.13,116,55.4,83.33,52.4,80Z"/></g><g class="cls-1"><path class="cls-2" d="M181.47,315.2l31,19s12.17-.56,16.27-.68S233,338,233,338l-.64,11.83-80.7-1.12s.32-13.69.73-31.47c0,0-1.44-6.19,5.87-5.86s18.06,1,18.06,1A8.7,8.7,0,0,1,181.47,315.2Z"/><line class="cls-2" x1="173.2" y1="326.63" x2="175.26" y2="317.23"/><line class="cls-2" x1="169.86" y1="320.97" x2="179.09" y2="322.99"/></g><g class="cls-1"><line class="cls-2" x1="43.16" y1="211.7" x2="33.87" y2="211.7"/><line class="cls-2" x1="38.51" y1="216.18" x2="38.51" y2="206.89"/><line class="cls-2" x1="159.53" y1="211.53" x2="150.25" y2="211.53"/><line class="cls-2" x1="154.88" y1="216.18" x2="154.88" y2="207.06"/><path class="cls-2" d="M23.38,191.08A26,26,0,0,0,12.54,212.2a25.36,25.36,0,0,0,22,25.68c13.9,2.65,34.81.63,34.81.63,15-1.25,47.82-2.2,83.9-2.92,0,0,21.72-.8,21.2-24.06-.24-10.8-10-19.38-18.09-19.38-31.21-4-64.16-8.08-90.55-11.24,0,0-31.94,2.37-42.43,10.18"/></g><g class="cls-1"><line class="cls-2" x1="155.01" y1="216.04" x2="155.01" y2="206.43"/><line class="cls-2" x1="150.37" y1="211.24" x2="159.32" y2="211.24"/><line class="cls-2" x1="174.08" y1="326.78" x2="174.08" y2="317.17"/><line class="cls-2" x1="169.6" y1="321.98" x2="179.05" y2="321.98"/><path class="cls-2" d="M179.64,314a9.73,9.73,0,0,1-5.56,17.72c-20.22,3.28-22.34-9.64-22.34-9.64-6-31-14.49-74.69-15.13-78.5L133.34,216s-4.48-21.3,29.13-17.73c10.55,1.11,12.1,12.93,12.1,12.93l5.14,102.61"/></g></g></g></svg>