<svg xmlns="http://www.w3.org/2000/svg" viewBox="0 0 228.77 318.06"><defs><style>.cls-1{opacity:0.9;}.cls-2{fill:#999;}</style></defs><title>Asset 3</title><g id="Layer_2" data-name="Layer 2"><g id="Layer_1-2" data-name="Layer 1"><g class="cls-1"><line class="cls-2" x1="88.09" y1="150.06" x2="88.09" y2="141.06"/><line class="cls-2" x1="84.09" y1="145.06" x2="93.09" y2="145.06"/><line class="cls-2" x1="149.09" y1="149.06" x2="149.09" y2="141.06"/><line class="cls-2" x1="144.09" y1="145.06" x2="153.09" y2="145.06"/><path class="cls-2" d="M148.63,138.94a6.45,6.45,0,1,1,0,12.9c-18.13,3.43-41.63,4.62-60.14,5.59a11.55,11.55,0,1,1,0-23.09c30.55,1.75,60.54,4.6,60.54,4.6"/></g><g class="cls-1"><line class="cls-2" x1="149.09" y1="149.06" x2="149.09" y2="141.06"/><line class="cls-2" x1="144.09" y1="145.06" x2="153.09" y2="145.06"/><path class="cls-2" d="M148.61,138.76a6.45,6.45,0,0,0,0,12.89s15.32,5.13,23.49,6.38c0,0,5.56,1.81,7-2.39,0,0,2.15-3.12-.85-5a65.48,65.48,0,0,0-8.4-4l20.2-1.08s4.37.06,4-4-3.23-3.57-3.23-3.57Z"/></g><g class="cls-1"><line class="cls-2" x1="48.99" y1="88.48" x2="56.27" y2="84.14"/><line class="cls-2" x1="50.23" y1="82.28" x2="54.88" y2="90.08"/><line class="cls-2" x1="84.8" y1="148.07" x2="92.15" y2="143.69"/><line class="cls-2" x1="86.26" y1="142.18" x2="90.68" y2="149.59"/><path class="cls-2" d="M59.36,75.33c3.18,1.5,11,14.22,11,14.22,5.26,7,16.72,28.65,28.06,50.42A11.55,11.55,0,1,1,78.56,151.8c-8.8-13.13-15.8-23.41-17.81-26.78,0,0-19.66-31.6-20.32-34.86l1.09,2.33a12.71,12.71,0,0,1,21.83-13"/></g><g class="cls-1"><line class="cls-2" x1="54.74" y1="76.58" x2="50.77" y2="69.1"/><line class="cls-2" x1="48.95" y1="74.86" x2="56.64" y2="70.78"/><path class="cls-2" d="M36.8,75.49a17,17,0,0,0,2,4.76c3.11,5.85,13.61,6.38,19.47,3.27a12,12,0,0,0,5-16.23l-1.49-3.15a3.14,3.14,0,0,1,1.93-4.62,32.55,32.55,0,0,1,4.63-1.6S72,57.36,71.1,54.3s-1.84-6.95-1.84-6.95a2.68,2.68,0,0,1,1.6-3.15c2.23-1.12,3.61-1.92,3.61-1.92s2.79-1.15,1.2-4.16-6.81-11.87-6.81-11.87S70.64-5.77,36.44.92c0,0-27,6.58-17.67,32.1C18.77,33,33.28,47.85,36.8,75.49Z"/></g><g class="cls-1"><line class="cls-2" x1="53.09" y1="76.06" x2="53.09" y2="68.06"/><line class="cls-2" x1="48.09" y1="72.06" x2="57.09" y2="72.06"/><line class="cls-2" x1="53.09" y1="90.06" x2="53.09" y2="82.06"/><line class="cls-2" x1="48.09" y1="86.06" x2="57.09" y2="86.06"/><line class="cls-2" x1="52.09" y1="197.06" x2="52.09" y2="188.06"/><line class="cls-2" x1="48.09" y1="192.06" x2="56.09" y2="192.06"/><path class="cls-2" d="M64.49,72.74c0-6.63-5.39-11.61-12-12-6.16-.37-13.37,2.57-15.19,6.88a97.91,97.91,0,0,1-8.41,17,4.81,4.81,0,0,0-.74,2.84c-.06,2-1.11,24,0,30.45s7,35.41,5.81,42.82-5.72,28.55-5.72,28.55a23.71,23.71,0,0,0,46.64,8.46S84.46,175.26,85.16,172c0,0,10.9-46.07,0-66.49C85.16,105.5,67.21,75.81,64.49,72.74Z"/></g><g class="cls-1"><line class="cls-2" x1="56.09" y1="192.06" x2="48.09" y2="192.06"/><line class="cls-2" x1="52.09" y1="196.06" x2="52.09" y2="188.06"/><line class="cls-2" x1="162.09" y1="192.06" x2="153.09" y2="192.06"/><line class="cls-2" x1="158.09" y1="196.06" x2="158.09" y2="188.06"/><path class="cls-2" d="M38.09,173.83A23.6,23.6,0,0,0,28.23,193a23.07,23.07,0,0,0,20,23.36c12.64,2.41,31.67.57,31.67.57,13.68-1.13,43.5-2,76.32-2.65,0,0,19.76-.73,19.29-21.89-.22-9.83-9.08-17.63-16.46-17.63-28.39-3.6-58.37-7.35-82.37-10.22,0,0-29.06,2.15-38.6,9.26"/></g><g class="cls-1"><line class="cls-2" x1="158.09" y1="196.06" x2="158.09" y2="187.06"/><line class="cls-2" x1="154.09" y1="192.06" x2="162.09" y2="192.06"/><line class="cls-2" x1="175.09" y1="297.06" x2="175.09" y2="288.06"/><line class="cls-2" x1="171.09" y1="292.06" x2="180.09" y2="292.06"/><path class="cls-2" d="M180.24,285.64a8.86,8.86,0,0,1-5.06,16.12c-18.39,3-20.32-8.77-20.32-8.77-5.48-28.2-13.18-68-13.76-71.42l-3-25s-4.07-19.37,26.5-16.13c9.6,1,11,11.76,11,11.76l4.68,93.35"/></g><path d="M192.09,313.54c-3.87,1.11-8.08,3.51-11.46,2.84-1.95-.39-2.24-5.88-3.86-8.84-2.16-4-3.78-9.41-7.55-11.17-18.26-8.54-38.11-7.63-57.81-4.73-9.65,1.41-11,7.85-10,15,.41,2.9,1.1,5.77,1.81,9.45H87.72c-.28-.89-1.24-2.36-1.1-3.75,1.9-19.58-.31-22.38-23-22.13-12.83.14-25.78,2.05-38.36,4.42-7.92,1.5-15.29,4.89-12.12,14.68.7,2.17-2.94,5.84-5.48,8.05-.78.68-6.05-.71-6.65-2a13.83,13.83,0,0,1-.6-8.83c5.13-19.74,25-21.94,42.88-25.25,13-2.41,26.62-2.59,40.76-3.83V257.17L75,261.08c0-1.83-.44-3,.07-3.74,3.08-4.26,6.39-8.39,9.58-12.59,5.4-7.1,3-12.58-6.42-14.06-4.8-.75-10.64-2.1-14.57-.53-15.85,6.38-25.61-3.48-36.4-9.57-3.18-1.79-5.4-7.45-4.92-11,4.53-34-6-65.84-16.73-98C1.16,98.15,2,83.26,1.73,69,1.55,58,9.93,54,21.65,58.22c10.89,4,16.85,11.71,14.43,21.28-5.54,21.89,3.39,40.78,12.75,60.18,4.72,9.8,6.44,20.69,10,32.65,4.39-2.87,8.51-6.79,13.65-8.7,21.77-8.11,44.5-9.06,67.13-3.48,8.59,2.12,13.39,7.62,7.11,16-5.25,7.05-9.81,14.49-14.6,21.65,13.31,2.63,26.52,4.45,39.09,8,11.48,3.21,14.36,10.53,9.6,19.23-3.07,5.6-6.68,7.43-14.83,5.62-13-2.87-26.63-3.36-38.52-4.7-5,8.47,6.82,18.32-7.08,19.69-4.37.43-9.74-6.73-15.62-11.14-4.07,2.11-8.55,4.61-4.46,12.45,3.13,6,3.75,13.52,3.36,20.27-.51,8.85,3.65,10.48,13,11.62,19.34,2.34,38.85,5.36,57.27,10.7,7.42,2.16,12.16,11.15,18.13,17ZM51.57,203.34c19-1.17,38.07-2.18,57-3.67,3-.24,6.89-2,8.48-4.16,5.22-7,9.57-14.47,14.33-21.88C90.13,164.08,55.32,177.15,51.57,203.34Z"/><g class="cls-1"><path class="cls-2" d="M181.91,286.54l28.17,17.29s11.07-.51,14.8-.62,3.89,4.09,3.89,4.09l-.58,10.76-73.41-1s.29-12.45.67-28.63c0,0-1.32-5.63,5.33-5.33s16.43.94,16.43.94A7.88,7.88,0,0,1,181.91,286.54Z"/><line class="cls-2" x1="174.38" y1="297.13" x2="176.25" y2="288.59"/><line class="cls-2" x1="171.34" y1="291.99" x2="179.74" y2="293.83"/></g></g></g></svg>