<svg xmlns="http://www.w3.org/2000/svg" viewBox="0 0 325.87 400"><defs><style>.cls-1,.cls-2{opacity:0.0;}.cls-2{fill:#FFF;}.cls-3{opacity:0.9;}.cls-4{fill:#999;}.cls-5{font-size:16px;font-family:HelveticaLTStd-Light, HelveticaLTStd Light;}.cls-5,.cls-8{fill:#66b5bc;}.cls-6{letter-spacing:0em;}.cls-7,.cls-9{fill:none;stroke:#66b5bc;stroke-miterlimit:10;}.cls-9{stroke-dasharray:5 5;}</style></defs><title>Asset 4</title><g id="Layer_2" data-name="Layer 2"><g id="Layer_1-2" data-name="Layer 1"><g class="cls-1"><rect class="cls-2" width="325.87" height="400"/></g><g class="cls-3"><line class="cls-4" x1="115.37" y1="205.67" x2="115.37" y2="197.12"/><line class="cls-4" x1="111.05" y1="201.4" x2="119.68" y2="201.4"/><line class="cls-4" x1="175.51" y1="205.07" x2="175.51" y2="196.75"/><line class="cls-4" x1="171.2" y1="200.91" x2="179.9" y2="200.91"/><path class="cls-4" d="M175.51,194.45a6.45,6.45,0,1,1,0,12.9c-18.13,3.43-41.64,4.62-60.14,5.59a11.55,11.55,0,1,1,0-23.09c30.54,1.76,60.54,4.6,60.54,4.6"/></g><g class="cls-3"><line class="cls-4" x1="175.49" y1="205.07" x2="175.49" y2="196.75"/><line class="cls-4" x1="171.18" y1="200.91" x2="179.88" y2="200.91"/><path class="cls-4" d="M175.49,194.46a6.45,6.45,0,0,0,0,12.9s15.32,5.12,23.49,6.37c0,0,5.56,1.82,7-2.38,0,0,2.15-3.12-.85-5a65.48,65.48,0,0,0-8.4-4L217,201.3s4.37.06,4-4-3.24-3.57-3.24-3.57Z"/></g><g class="cls-3"><line class="cls-4" x1="75.87" y1="143.99" x2="83.15" y2="139.65"/><line class="cls-4" x1="77.11" y1="137.8" x2="81.76" y2="145.59"/><line class="cls-4" x1="111.68" y1="203.59" x2="119.02" y2="199.21"/><line class="cls-4" x1="113.14" y1="197.7" x2="117.56" y2="205.1"/><path class="cls-4" d="M86.24,130.84c3.18,1.5,11,14.23,11,14.23,5.26,7,16.72,28.65,28.06,50.41a11.55,11.55,0,1,1-19.84,11.83c-8.79-13.13-15.8-23.41-17.8-26.77,0,0-19.66-31.61-20.32-34.86L68.4,148a12.71,12.71,0,1,1,21.83-13"/></g><g class="cls-3"><line class="cls-4" x1="81.62" y1="132.1" x2="77.65" y2="124.61"/><line class="cls-4" x1="75.83" y1="130.38" x2="83.51" y2="126.3"/><path class="cls-4" d="M63.67,131a17.19,17.19,0,0,0,2,4.75c3.11,5.86,13.61,6.38,19.47,3.28a12,12,0,0,0,5-16.24l-1.48-3.15A3.14,3.14,0,0,1,90.55,115a32.21,32.21,0,0,1,4.64-1.6s3.64-.56,2.79-3.61-1.84-6.95-1.84-6.95a2.7,2.7,0,0,1,1.6-3.16c2.23-1.12,3.61-1.91,3.61-1.91s2.79-1.16,1.19-4.17-6.8-11.87-6.8-11.87,1.78-32-32.43-25.32c0,0-26.95,6.57-17.66,32.09C45.65,88.53,60.16,103.37,63.67,131Z"/></g><g class="cls-3"><line class="cls-4" x1="79.51" y1="132.49" x2="79.51" y2="124.02"/><line class="cls-4" x1="75.2" y1="128.25" x2="83.9" y2="128.25"/><line class="cls-4" x1="79.51" y1="146.03" x2="79.51" y2="137.56"/><line class="cls-4" x1="74.82" y1="141.79" x2="83.9" y2="141.79"/><line class="cls-4" x1="78.98" y1="252.71" x2="78.98" y2="244.23"/><line class="cls-4" x1="74.9" y1="248.47" x2="83.37" y2="248.47"/><path class="cls-4" d="M91.37,128.25c0-6.63-5.39-11.61-12-12-6.17-.37-13.37,2.56-15.19,6.87a98.7,98.7,0,0,1-8.41,17A4.81,4.81,0,0,0,55,143c-.06,2-1.12,23.95,0,30.45s7,35.4,5.8,42.82-5.71,28.54-5.71,28.54a23.71,23.71,0,0,0,46.64,8.46s9.58-22.46,10.29-25.73c0,0,10.9-46.07,0-66.5C112,161,94.09,131.33,91.37,128.25Z"/></g><g class="cls-3"><line class="cls-4" x1="82.96" y1="248.1" x2="74.51" y2="248.1"/><line class="cls-4" x1="78.74" y1="252.17" x2="78.74" y2="243.73"/><line class="cls-4" x1="188.82" y1="247.95" x2="180.38" y2="247.95"/><line class="cls-4" x1="184.6" y1="252.17" x2="184.6" y2="243.88"/><path class="cls-4" d="M65,229.34a23.62,23.62,0,0,0-9.86,19.21,23.08,23.08,0,0,0,20,23.37c12.64,2.4,31.67.57,31.67.57,13.67-1.14,43.5-2,76.32-2.66,0,0,19.76-.73,19.28-21.88-.22-9.83-9.07-17.64-16.45-17.64-28.4-3.6-58.37-7.34-82.37-10.22,0,0-29.06,2.16-38.6,9.26"/></g><g class="cls-3"><line class="cls-4" x1="184.71" y1="252.05" x2="184.71" y2="243.3"/><line class="cls-4" x1="180.49" y1="247.68" x2="188.64" y2="247.68"/><line class="cls-4" x1="202.06" y1="352.79" x2="202.06" y2="344.05"/><line class="cls-4" x1="197.98" y1="348.42" x2="206.58" y2="348.42"/><path class="cls-4" d="M207.12,341.15a8.86,8.86,0,0,1-5.06,16.13c-18.4,3-20.33-8.78-20.33-8.78-5.47-28.2-13.18-67.94-13.75-71.41l-3-25s-4.07-19.38,26.5-16.14c9.6,1,11,11.77,11,11.77L207.18,341"/></g><path d="M218.65,369.8c-3.85,1.11-8,3.51-11.41,2.83-1.94-.39-2.23-5.88-3.84-8.84-2.15-3.94-3.76-9.4-7.52-11.17-18.17-8.53-37.93-7.62-57.55-4.73-9.6,1.42-11,7.86-10,15,.41,2.9,1.09,5.78,1.8,9.45H114.74c-.27-.88-1.22-2.35-1.09-3.74,1.9-19.59-.3-22.38-22.86-22.14-12.76.14-25.66,2.06-38.18,4.43-7.89,1.49-15.23,4.89-12.07,14.68.7,2.16-2.92,5.84-5.45,8-.78.68-6-.7-6.63-2a13.9,13.9,0,0,1-.59-8.83C33,343,52.72,340.79,70.56,337.48c13-2.41,26.5-2.59,40.57-3.83V313.43l-9,3.91c0-1.84-.43-3,.07-3.74,3.07-4.26,6.37-8.4,9.55-12.59,5.37-7.1,3-12.58-6.4-14.06-4.78-.75-10.59-2.11-14.5-.53-15.78,6.37-25.5-3.49-36.24-9.58-3.16-1.79-5.37-7.44-4.9-11,4.51-34-6-65.83-16.65-98-4.46-13.42-3.67-28.32-3.9-42.56-.18-11,8.17-15.07,19.83-10.79,10.85,4,16.78,11.71,14.37,21.28-5.51,21.88,3.37,40.78,12.69,60.18,4.71,9.8,6.41,20.68,9.93,32.65,4.38-2.87,8.48-6.79,13.59-8.7,21.68-8.11,44.31-9.07,66.84-3.48,8.55,2.12,13.33,7.61,7.07,16.05-5.22,7-9.76,14.49-14.53,21.65,13.25,2.63,26.4,4.45,38.91,8,11.43,3.2,14.31,10.53,9.56,19.22-3.05,5.6-6.65,7.43-14.76,5.63-12.9-2.88-26.51-3.37-38.35-4.7-5,8.47,6.79,18.32-7,19.68-4.35.43-9.7-6.73-15.56-11.14-4,2.12-8.51,4.62-4.44,12.46,3.12,6,3.74,13.52,3.35,20.27-.51,8.85,3.63,10.48,13,11.62,19.25,2.33,38.67,5.36,57,10.7,7.39,2.15,12.11,11.14,18.05,17ZM78.45,258.86c19-1.17,38.06-2.18,57-3.67,3-.24,6.89-2,8.48-4.17,5.22-7,9.57-14.46,14.33-21.87C117,219.59,82.19,232.67,78.45,258.86Z"/><g class="cls-3"><path class="cls-4" d="M208.78,342.25,237,359.53s11.07-.51,14.8-.62,3.89,4.1,3.89,4.1l-.58,10.75-73.41-1s.28-12.45.66-28.64c0,0-1.31-5.62,5.34-5.32s16.43.93,16.43.93A7.9,7.9,0,0,1,208.78,342.25Z"/><line class="cls-4" x1="201.26" y1="352.65" x2="203.13" y2="344.1"/><line class="cls-4" x1="198.22" y1="347.5" x2="206.61" y2="349.34"/></g><text class="cls-5" transform="translate(181.66 175.96)">altu<tspan class="cls-6" x="25.6" y="0">r</tspan><tspan x="30.75" y="0">a adecuada</tspan></text><line class="cls-7" x1="268.99" y1="367.79" x2="268.99" y2="200.16"/><polygon class="cls-8" points="272.69 364.98 268.99 366.56 265.29 364.98 268.99 373.76 272.69 364.98"/><polygon class="cls-8" points="272.69 202.97 268.99 201.4 265.29 202.97 268.99 194.19 272.69 202.97"/><line class="cls-9" x1="218.99" y1="194.2" x2="298.07" y2="194.2"/><line class="cls-9" x1="247.52" y1="373.76" x2="298.07" y2="373.14"/></g></g></svg>