<svg xmlns="http://www.w3.org/2000/svg" viewBox="0 0 117.94 139.27"><defs><style>.cls-1{fill:#FFF;}</style></defs><title>Asset 3</title><g id="Layer_2" data-name="Layer 2"><g id="Layer_1-2" data-name="Layer 1"><path class="cls-1" d="M0,107.37H4.69v2.72a9.14,9.14,0,0,1,8.41-4.63,13,13,0,0,1,9.53,3.87,12.88,12.88,0,0,1,0,18.43,12.92,12.92,0,0,1-9.53,3.9A9.11,9.11,0,0,1,4.69,127v12.3H0Zm4.69,9.19v4A8.24,8.24,0,0,0,7.09,125a8.42,8.42,0,0,0,12.06-.07,8.6,8.6,0,0,0,2.57-6.35,8.71,8.71,0,0,0-2.57-6.4,8.3,8.3,0,0,0-6-2.59A8.39,8.39,0,0,0,7,112.21,8.18,8.18,0,0,0,4.69,116.56Z"/><path class="cls-1" d="M56.52,131H51.84V126.9a9.13,9.13,0,0,1-8.44,4.76,13,13,0,0,1-9.52-3.9,12.86,12.86,0,0,1,0-18.45,13,13,0,0,1,9.52-3.88,9.15,9.15,0,0,1,8.44,4.71v-2.77h4.68Zm-4.68-10.62v-3.78a8.43,8.43,0,0,0-2.36-4.43,8.35,8.35,0,0,0-12.14,0,8.75,8.75,0,0,0-2.57,6.4,8.61,8.61,0,0,0,2.57,6.34,8.42,8.42,0,0,0,12.14-.05A8.39,8.39,0,0,0,51.84,120.42Z"/><path class="cls-1" d="M89.51,107.37,81.46,131H78.17l-4-11.21-4,11.21H66.83l-8-23.67h5.05l4.74,14.71,4-11h3.16l4,11,4.72-14.71Z"/><path class="cls-1" d="M117.94,131h-4.68V126.9a9.13,9.13,0,0,1-8.44,4.76,13,13,0,0,1-9.52-3.9,12.86,12.86,0,0,1,0-18.45,13,13,0,0,1,9.52-3.88,9.15,9.15,0,0,1,8.44,4.71v-2.77h4.68Zm-4.68-10.62v-3.78a8.43,8.43,0,0,0-2.36-4.43,8.35,8.35,0,0,0-12.14,0,8.75,8.75,0,0,0-2.57,6.4,8.61,8.61,0,0,0,2.57,6.34,8.42,8.42,0,0,0,12.14-.05A8.39,8.39,0,0,0,113.26,120.42Z"/><rect class="cls-1" x="102.11" y="94.93" width="2.97" height="7.48" transform="translate(-39.43 102.16) rotate(-45)"/><path class="cls-1" d="M88.29,60.34c-2-3.82-20.72.69-26.56,2.21A115.47,115.47,0,0,0,64.2,49.08c4.52-.16,14.92-.89,15.55-4.23C80.4,41.36,69.3,34,65.21,31.36a6.48,6.48,0,0,0-3.8-2V25.41a12.71,12.71,0,1,0-4,.1v3.78A7.08,7.08,0,0,0,53.8,31c-3.41,2.13-15.86,10.2-15.17,13.89.64,3.41,11.45,4.1,15.81,4.24a114.38,114.38,0,0,0,2.49,13.53c-5.48-1.44-24.79-6.17-26.84-2.28-1.53,2.89,12.81,9.44,23.46,13.83L51.71,75S49.58,86.24,52.78,85.7s1.07-7.21,1.07-7.21,2.13-.78,5.34-2c3.2,1.26,5.34,2,5.34,2s-2.14,6.68,1.07,7.21S66.66,75,66.66,75l-1.83-.85C75.48,69.78,89.82,63.23,88.29,60.34ZM65.77,34.69c4.14,2.85,8.9,9.36,8.9,9.36-1.59,1.42-6.72,1.43-10,1.27C65.23,40.85,65.61,36.85,65.77,34.69ZM43.7,44.05s5-6.78,9.16-9.53c.16,2.11.54,6.2,1.1,10.79C50.71,45.48,45.34,45.51,43.7,44.05ZM59.19,71.62c-6.64-3-15.81-6.89-19.23-7.54L59.19,67h.13a.58.58,0,0,0,.26-.06l18.83-2.87C75,64.73,65.83,68.65,59.19,71.62Z"/></g></g></svg>