<svg xmlns="http://www.w3.org/2000/svg" viewBox="0 0 243.98 575.1"><defs><style>.cls-1{fill:#999;opacity:0.75;}.cls-2{fill:#383838;}.cls-3{fill:#636363;}.cls-4{fill:#f12;}.cls-5{fill:#f2e7c7;}</style></defs><title>Asset 4xxxhdpi</title><g id="Layer_2" data-name="Layer 2"><g id="Layer_1-2" data-name="Layer 1"><ellipse class="cls-1" cx="121.99" cy="540.81" rx="121.99" ry="34.3"/><path class="cls-2" d="M176.66,93C169.27,89.58,160.41,89,153,85.52c-1.54-.73-14.88-6.78-15-8.39l-.51-8.7.13-7.59,2.76-3.65.94-9.51C152,36,143.57,33.33,143.57,33.33,149.38,9.68,134.64,2.65,126.69.6a18.67,18.67,0,0,0-9.39,0c-8,2.05-22.69,9.08-16.89,32.73,0,0-8.44,2.66,2.26,14.35l.94,9.51,1.82,3.65.13,7.59c-.34,5.7.4,7.84-4.61,10.89a131.67,131.67,0,0,1-20.68,9.89c-4.34,1.67-8.76,2.36-12.9,3.85L50,132.55c-1.11,12.24-2.62,27.93-3.2,29.53-1.78,4.93-2.33,10.35-3,13-1.84,7-4.07,13.81-5.6,20.91-3.71,17.13-5.28,34.09-6,51.53-.18,4.29,1,8.6.88,12.89-.05,2.93-1.08,5.86-1.29,8.78-.16,2.34-.09,4.88-1,7.09a14.4,14.4,0,0,0-1.29,3.14c-1.06,6.83-.34,14-1,20.85l7.93,13.52,13.8,4.75,1-4-10-5.85s-3.45-10.23-2.41-13.88c0,0,5.17-2.2,4.48,7.67l.3,6h5.23l-.21-12.84a97.38,97.38,0,0,1-.06-10.25c.27-3.08-1.1-5.89-2.07-8.75l-2-5.79A33.75,33.75,0,0,1,47.29,260s18.38-41.17,17.13-70.16c0,0,10.17-24.51,11.21-30.27,0,0,7.27,37.47,5.81,58.5-2.52,36.28-11.12,72.23-9.65,108.76a234.66,234.66,0,0,0,4.08,32.83C78,370.73,79.72,382,79.14,393.4c-.57,11.21-2.41,22.16-3.69,33.3-1.75,15.22,1.87,26.8,5.3,41.1,2.48,10.37,7,22.42,4.58,33.26-.45,2.06-1.16,4.06-1.47,6.15a47.9,47.9,0,0,0-.3,5.5c-.31,9-2.43,20.07-4.61,28.72-.35,1.4,11.1,16,18.55,18,2.9.79,5.41-13.94,5.65-17.1.61-7.8.67-15.91,1.18-23.64.86-13.05-.52-24.57-1.33-37.21-.46-7.2,1.68-13.2,2.78-20.28,1.43-9.22,1.72-18.44,2.55-27.74s.47-18.36.09-27.69c-1.39-34.4,7.26-69.28,10.52-103.37,0,0,.88-9.22,3-10.59,2.17,1.37,3.05,10.59,3.05,10.59,1,30.83,7.42,63.08,9.34,93.25.34,5.41,1.65,10.19.91,15.63-2.28,16.71.4,33.42,3,49.92,1.1,7.08,3.2,13.08,2.74,20.28-.81,12.64-2.2,24.16-1.33,37.21.51,7.73-.42,15.84.18,23.64.25,3.16-.09,19.59,2.81,18.81,7.45-2,24-19,23.7-20.42-2.19-8.65-6.56-19-6.87-28a45.74,45.74,0,0,0-.3-5.5c-.31-2.09-1-4.09-1.47-6.15-2.32-10.57,1.75-21.14,3.81-31.37,2.13-10.62,5.47-20.89,5.95-31.83.43-9.9-1.46-19.57-3.07-29.33-4.52-27.33,6.73-54.41,7.84-81.75,1.47-36.53-10.09-71.49-12.61-107.78-1.47-21,8.72-59.48,8.72-59.48,1.05,5.76,10.28,30.27,10.28,30.27-1.26,29,17.12,70.16,17.12,70.16a33.75,33.75,0,0,1,2.72,10.84l-1.95,5.79c-1,3.09-2.57,6.13-2,9.51a43.3,43.3,0,0,1,.8,8.11l-.23,14.22h5.22l.3-6c-.69-9.87,4.49-7.67,4.49-7.67,1,3.65-2.42,13.88-2.42,13.88l-10,5.85,1,4,13.8-4.75,7.93-13.52c-.64-6.89-.86-14-1.92-20.85a13.93,13.93,0,0,0-1.29-3.14c-.87-2.21-.79-4.75-1-7.09-.21-2.92-.3-5.85-.35-8.78-.07-4.29.13-8.6-.05-12.89-.74-17.44-1.37-34.4-5.08-51.53-1.54-7.1-3.76-13.92-5.61-20.91-.69-2.62-2.17-8-4-13-.62-1.72-2.32-19.72-3.43-32.21Z"/><path d="M168.77,263l-.43-2.47-94.62-.63-.35,2.62c-3,22.72-5.43,43.25-4.57,64.43a233.07,233.07,0,0,0,4.12,33.26c1.87,10,3.81,21.61,3.22,33.09-.39,7.62-1.4,15.31-2.37,22.75-.44,3.38-.9,6.88-1.3,10.36-1.6,13.91,1,24.63,4.12,37.06q.61,2.49,1.24,5.08c.48,2,1,4.05,1.6,6.2,2.33,8.68,4.74,17.66,3,25.72-.16.76-.37,1.51-.58,2.27l-1.21,4.54h27l-.11-3.11c-.18-4.95-.54-9.7-.92-14.73-.2-2.66-.4-5.34-.58-8.09-.29-4.57.59-8.74,1.52-13.16.43-2.07.88-4.2,1.23-6.46,1-6.38,1.45-12.82,1.89-19.05.21-2.91.43-5.92.69-8.88.85-9.43.49-18.32.11-27.74v-.35c-.9-22.21,2.51-45.08,5.81-67.2,1.75-11.74,3.56-23.89,4.7-35.76l.06-.6.06.51c.54,17.19,2.79,35,5,52.14,1.73,13.64,3.51,27.75,4.36,41.11.12,1.87.35,3.65.56,5.37a36.12,36.12,0,0,1,.37,9.67c-2.29,16.85.32,33.65,2.84,49.91l.14.87c.34,2.22.78,4.32,1.2,6.36.93,4.45,1.8,8.66,1.5,13.26-.17,2.75-.38,5.44-.58,8.1-.38,5.1-.75,9.91-.92,14.94l-.11,3.15,26-.39-1.18-4.41c-.21-.76-.41-1.51-.58-2.27-1.63-7.44.28-15.27,2.14-22.85.58-2.39,1.19-4.85,1.68-7.29.63-3.12,1.38-6.29,2.1-9.35,1.75-7.37,3.56-15,3.9-22.94.4-9.14-1.11-18.1-2.57-26.77-.18-1.06-.36-2.12-.53-3.18-2.67-16.09.28-31.91,3.41-48.65,2-10.6,4-21.55,4.46-32.49C176.12,305,172.38,283.64,168.77,263Z"/><path class="cls-3" d="M72.69,270.61l1-9.43H169s.81,7.88,1,9.43Z"/><rect class="cls-2" x="91.56" y="259.58" width="3.19" height="11.96"/><rect class="cls-2" x="149.93" y="259.58" width="3.19" height="11.96"/><path class="cls-2" d="M125.58,265.43a1.53,1.53,0,1,1-1.53-1.53A1.53,1.53,0,0,1,125.58,265.43Z"/><path class="cls-2" d="M106.63,509.66s.53-1.41,1-2.94C94.92,502,81,505.39,80.31,505.55a15.9,15.9,0,0,0,.08,3.27S97.07,505.63,106.63,509.66Z"/><path class="cls-2" d="M136.29,509.66s-.53-1.41-1-2.94c12.69-4.76,26.65-1.33,27.3-1.17a15.59,15.59,0,0,1-.09,3.27S145.85,505.63,136.29,509.66Z"/><path d="M168.19,159.82c12.4,6.68,33.48-11.19,33.48-11.19L177.9,92.42S165,120,164.44,134.41Z"/><path class="cls-4" d="M168.19,159.82l-3.75-25.41c.6-14.42,13.46-42,13.46-42L141.32,78.21C133,82.57,126.85,83.36,122,83.36c-4.17,0-11-.79-19.32-5.15L66.08,92.42S79,120,79.54,134.41L75.8,159.82,67.94,261.47s5.34,3.63,53.74,3.66h.62c48.41,0,53.74-3.66,53.74-3.66Z"/><path d="M75.8,159.82c-12.41,6.68-33.49-11.19-33.49-11.19L66.08,92.42S79,120,79.54,134.41Z"/><path class="cls-5" d="M99.76,79.34s6.56,6.84,22.23,6.84,22.23-6.84,22.23-6.84l-2.9-1.13s-9.16,5.07-19.57,5.15a40.52,40.52,0,0,1-19.08-5.15Z"/></g></g></svg>